Coordinates
version=1
nRows=14
nColumns=24
inDegrees=yes

Units are S.I. units (second, meters, Newtons, ...)
Angles are in degrees.

endheader
time	pelvis_tilt	pelvis_list	pelvis_rotation	pelvis_tx	pelvis_ty	pelvis_tz	hip_flexion_r	hip_adduction_r	hip_rotation_r	knee_angle_r	ankle_angle_r	subtalar_angle_r	mtp_angle_r	hip_flexion_l	hip_adduction_l	hip_rotation_l	knee_angle_l	ankle_angle_l	subtalar_angle_l	mtp_angle_l	lumbar_extension	lumbar_bending	lumbar_rotation
      1.31500000	    -10.08856446	     -1.94154576	      1.11059777	     -0.53634992	      1.21818547	     -0.82204971	     -2.23475284	      9.15306433	      3.33980001	     -8.80999126	     12.40991354	     -5.77385646	      3.43154483	     32.24602535	      4.42201427	      6.99497402	     -5.78487495	     -2.29785893	     -4.88541802	      6.23166089	     -4.64668668	      5.05448321	      5.82664005
      1.32000000	    -10.12360557	     -1.99590491	      1.04311399	     -0.53099777	      1.21776890	     -0.82226187	     -2.26398901	      9.16938900	      3.42006998	     -9.47314655	     12.49966131	     -5.45241613	      3.79275010	     32.49206899	      4.48630647	      7.28575163	     -6.54484374	     -2.88020171	     -4.94518252	      6.25866057	     -4.59483468	      5.00761111	      5.74425125
      1.32500000	    -10.11921481	     -2.03122971	      0.99439128	     -0.52559469	      1.21744892	     -0.82250269	     -2.31283314	      9.15880398	      3.44198366	    -10.17878880	     12.61541341	     -5.06296188	      4.31033863	     32.69677259	      4.58675066	      7.63599823	     -7.38047599	     -3.57572708	     -5.19902094	      6.33982840	     -4.57732341	      4.93325527	      5.64999815
      1.33000000	    -10.09038887	     -2.04823087	      0.95632152	     -0.52014127	      1.21722264	     -0.82275969	     -2.36115373	      9.12445727	      3.42471070	    -10.93252210	     12.69704787	     -4.65491953	      4.88769744	     32.87998217	      4.71386814	      7.99680008	     -8.28885388	     -4.33591841	     -5.52383088	      6.43154808	     -4.57819004	      4.83407719	      5.55192560
      1.33500000	    -10.03923681	     -2.04689419	      0.92860894	     -0.51462781	      1.21709621	     -0.82302411	     -2.40195794	      9.06691528	      3.36377774	    -11.74210646	     12.74572002	     -4.21891567	      5.52462521	     33.04047545	      4.86441980	      8.35366505	     -9.25741668	     -5.12075976	     -5.88023462	      6.51908934	     -4.59358956	      4.71011655	      5.45370354
      1.34000000	     -9.96584740	     -2.03059176	      0.91643757	     -0.50906642	      1.21706324	     -0.82330239	     -2.42986113	      8.98970471	      3.24386217	    -12.61331286	     12.75811834	     -3.75606423	      6.23452783	     33.17857407	      5.03705532	      8.70865312	    -10.27638284	     -5.90299242	     -6.24981842	      6.58349881	     -4.63042186	      4.56332741	      5.34080622
      1.34500000	     -9.87007192	     -2.00015725	      0.91597912	     -0.50345364	      1.21712857	     -0.82358125	     -2.44006507	      8.89431025	      3.06719043	    -13.55350308	     12.73563810	     -3.26506875	      7.02665657	     33.28419488	      5.22465504	      9.04725420	    -11.32238785	     -6.65331011	     -6.60489688	      6.62264357	     -4.68354099	      4.39598372	      5.22964168
      1.35000000	     -9.71829704	     -1.94419405	      0.93225710	     -0.49775265	      1.21734216	     -0.82390393	     -2.48398959	      8.75899995	      2.80268284	    -14.53557340	     12.66331456	     -2.74393398	      7.99881408	     33.30183726	      5.44373402	      9.36463622	    -12.36494337	     -7.36083024	     -7.00539474	      6.66894611	     -4.77879092	      4.20550252	      5.12303809
      1.35500000	     -9.58692951	     -1.88961954	      0.96365921	     -0.49202159	      1.21759265	     -0.82419863	     -2.44040325	      8.62803053	      2.49024195	    -15.62516866	     12.54065291	     -2.23152602	      8.97458030	     33.34780086	      5.66046022	      9.65269812	    -13.44497341	     -7.97247187	     -7.29578275	      6.67061995	     -4.85360483	      3.99950335	      5.00815686
      1.36000000	     -9.48234809	     -1.83958963	      1.01557992	     -0.48624970	      1.21788022	     -0.82453644	     -2.29391661	      8.49319790	      2.09720131	    -16.83675757	     12.35790104	     -1.71145695	      9.94978519	     33.41609336	      5.88204944	      9.94392722	    -14.53896910	     -8.48429467	     -7.48450537	      6.64508063	     -4.89390121	      3.80629705	      4.85893288
      1.36500000	     -9.32788245	     -1.76612974	      1.08688836	     -0.48039350	      1.21829753	     -0.82487966	     -2.15733401	      8.31877803	      1.59743771	    -18.11783017	     12.11960940	     -1.14513392	     11.09229928	     33.37773731	      6.12531291	     10.20887668	    -15.56917964	     -8.91214932	     -7.66922834	      6.60482438	     -4.97275774	      3.58025823	      4.70700730
      1.37000000	     -9.15575488	     -1.68548575	      1.16964852	     -0.47449501	      1.21880233	     -0.82524304	     -1.97599729	      8.12307747	      1.03397068	    -19.49741398	     11.81003479	     -0.59770397	     12.33200723	     33.27890950	      6.37435105	     10.45477456	    -16.54768371	     -9.24609390	     -7.82911654	      6.57044960	     -5.06203335	      3.35085586	      4.56871627
      1.37500000	     -8.91753558	     -1.58310070	      1.25010404	     -0.46855255	      1.21945191	     -0.82558740	     -1.81920058	      7.88986784	      0.43306421	    -20.94078348	     11.42311981	     -0.10514849	     13.84769715	     33.04429994	      6.62888294	     10.64766226	    -17.43526201	     -9.49156978	     -8.02336926	      6.52317678	     -5.21845311	      3.09378170	      4.46321026
      1.38000000	     -8.78157460	     -1.50360659	      1.38147009	     -0.46259478	      1.22001607	     -0.82602345	     -1.44238710	      7.66029023	     -0.29010358	    -22.57455897	     10.91741033	      0.39073961	     14.90328092	     32.91233389	      6.89250307	     10.91123333	    -18.30997317	     -9.62178899	     -8.03050158	      6.54904650	     -5.25717349	      2.87553989	      4.27480260
